<?xml version="1.0" encoding="UTF-8" standalone="no"?>
<!-- Created with Inkscape (http://www.inkscape.org/) -->

<svg
   version="1.1"
   id="svg55"
   width="545.06665"
   height="408.48743"
   viewBox="0 0 545.06665 408.48743"
   xmlns="http://www.w3.org/2000/svg"
   xmlns:svg="http://www.w3.org/2000/svg">
  <defs
     id="defs59" />
  <g
     id="g61"
     transform="translate(-9.5572348,-57.125492)">
    <path
       style="fill:#ffffff;stroke-width:1.06667"
       d="M 135.95723,465.38111 C 83.281325,462.33577 40.778505,450.39829 21.951935,433.36122 c -3.32854,-3.01216 -7.47902,-8.05332 -9.2233,-11.20259 l -3.1714002,-5.72595 v -41.6 -41.59999 l 2.5130902,-4.8 c 8.77067,-16.75195 35.48546,-30.37723 73.22024,-37.34433 3.52,-0.64991 6.99683,-1.37703 7.7263,-1.61582 0.77619,-0.25409 -0.8068,-2.42944 -3.8165,-5.24466 -2.82854,-2.64578 -6.54538,-7.34206 -8.25964,-10.43618 l -3.11683,-5.62568 V 187.09936 106.0327 l 2.98705,-6.082777 c 10.11021,-20.58825 47.281515,-35.398706 104.212945,-41.522385 16.16095,-1.73831 63.17976,-1.735442 79.99999,0.0049 49.32584,5.103542 83.3573,16.669875 99.00951,33.650515 6.7763,7.35138 8.72382,12.773487 8.72382,24.288037 v 9.62811 l 20.53333,-0.74205 c 55.18731,-1.9944 110.80012,7.65796 138.60977,24.05761 8.67875,5.11795 16.82711,12.86104 20.21023,19.20507 l 2.51333,4.71296 v 75.73332 75.73333 l -2.60705,5.33334 c -12.98658,26.56714 -70.79325,44.26403 -144.59437,44.266 -34.90553,9.4e-4 -69.28922,-4.18845 -91.7319,-11.17682 -4.69334,-1.46144 -9.13333,-2.66438 -9.86667,-2.67318 -1.03231,-0.0124 -1.33333,6.13978 -1.33333,27.25005 0,26.96415 -0.03,27.32928 -2.70184,32.97726 -9.87644,20.87709 -48.28262,37.15143 -100.73861,42.68725 -15.32306,1.61708 -52.2336,2.7613 -65.09287,2.01786 z m 61.86666,-24.48201 c 32.08361,-3.36003 57.24145,-10.26246 73.58053,-20.18792 10.75244,-6.53178 10.68613,-6.35538 10.68613,-28.42235 0,-10.48088 -0.25369,-19.05615 -0.56375,-19.05615 -0.31006,0 -3.37341,1.41832 -6.80744,3.15181 -15.70717,7.92895 -43.74856,15.16566 -73.16214,18.88114 -18.31044,2.31294 -68.73255,2.62593 -85.33333,0.5297 -34.120415,-4.3085 -59.117755,-10.55328 -75.551605,-18.87411 -4.00672,-2.0287 -7.72672,-3.68854 -8.26667,-3.68854 -0.56018,0 -0.9787,7.90076 -0.97469,18.4 0.008,19.89918 0.41548,21.55949 6.41628,26.11826 26.24524,19.93834 95.264755,29.92527 159.976685,23.14816 z m 0,-68.26666 c 32.08361,-3.36003 57.24145,-10.26247 73.58053,-20.18793 7.12931,-4.33083 10.68613,-8.22885 10.68613,-11.71123 0,-5.06328 -12.02799,-13.54611 -27.73333,-19.55913 -39.22339,-15.01727 -111.07823,-18.5881 -164.447425,-8.17224 -29.44421,5.74652 -54.09684,16.82555 -57.52948,25.85407 -2.18473,5.74629 6.44623,13.35316 22.64351,19.95678 34.27729,13.97481 89.909795,19.35873 142.800065,13.81968 z M 452.22387,349.3452 c 32.21384,-4.02758 60.6532,-12.76149 73.86779,-22.68525 6.11364,-4.59117 6.66554,-6.82462 6.66554,-26.97429 0,-10.00247 -0.17356,-18.1863 -0.38568,-18.1863 -0.21212,0 -4.42191,1.89144 -9.3551,4.20321 -26.57645,12.45415 -60.72496,18.92578 -105.45921,19.98602 -36.83026,0.87292 -63.97475,-1.59455 -91.73333,-8.33869 -14.61155,-3.54998 -31.15086,-9.35049 -37.96038,-13.31313 -2.39821,-1.39558 -4.67821,-2.53741 -5.06667,-2.53741 -0.38846,0 -0.70628,6.21693 -0.70628,13.81542 v 13.81542 l 4.55775,3.13582 c 8.32088,5.72492 14.77474,13.87926 17.16943,21.69332 0.67604,2.20597 19.07696,8.33716 34.3171,11.43446 10.20244,2.07347 30.37048,4.90316 41.55571,5.83051 11.22815,0.9309 60.20692,-0.33798 72.53333,-1.87911 z M 259.69055,267.70683 v -30.85918 l -12,0.49483 c -6.6,0.27215 -13.92,0.6914 -16.26666,0.93165 -7.6667,0.78492 -45.52339,-1.56377 -60.8,-3.77214 -25.93108,-3.74854 -49.37671,-10.38167 -65.40611,-18.50438 l -5.527225,-2.80085 v 24.07093 c 0,19.31941 0.316105,24.68223 1.601385,27.16768 2.69315,5.20799 14.03652,12.00727 29.33195,17.58178 7.19668,2.62288 9.2853,2.89939 20.8,2.75375 32.83352,-0.41528 77.78565,5.01426 99.73333,12.04629 9.31415,2.98424 8.53333,5.64792 8.53333,-29.11036 z m 191.46666,13.2939 c 30.60933,-3.71197 54.74586,-10.49399 70.027,-19.67658 11.16685,-6.71029 11.57299,-7.74845 11.57299,-29.58253 0,-10.17991 -0.25368,-18.50893 -0.56375,-18.50893 -0.31006,0 -3.48629,1.47529 -7.05826,3.27842 -15.25248,7.69943 -41.55364,14.62406 -71.31132,18.77499 -18.86368,2.63133 -73.53796,2.6253 -93.33332,-0.0107 -28.96943,-3.85702 -51.08024,-9.60213 -68.65922,-17.83992 -4.93319,-2.31137 -9.14298,-4.20282 -9.35509,-4.20282 -0.21213,0 -0.38569,8.72229 -0.38569,19.38285 v 19.38284 l 4.5803,4.35049 c 14.1096,13.40166 52.05499,23.52496 99.95303,26.66604 11.64804,0.76386 52.01452,-0.49603 64.53333,-2.01418 z m -199.6276,-66.32456 8.16094,-0.68985 v -19.07773 c 0,-14.15481 0.39471,-20.02242 1.52962,-22.73864 l 1.52961,-3.66088 -14.06294,0.53739 c -7.73462,0.29556 -15.67441,0.73654 -17.64396,0.97996 -6.6182,0.81797 -45.34486,-1.612 -60.41899,-3.79109 -25.97335,-3.75466 -49.37435,-10.38048 -65.47263,-18.53809 l -5.593725,-2.83456 0.33318,19.72848 0.333175,19.72848 3.54416,3.65393 c 7.1498,7.37124 29.59304,16.51475 51.68212,21.05559 26.0206,5.34906 69.42513,7.90013 96.07944,5.64701 z m 194.8276,-1.52594 c 48.05272,-4.79789 90.30097,-21.73811 85.43707,-34.25759 -2.02528,-5.21297 -10.90681,-11.20192 -24.72401,-16.67177 -46.46578,-18.39457 -132.2062,-20.39812 -186.83984,-4.36603 -20.60304,6.0459 -38.13988,16.7589 -38.13988,23.29909 0,6.97529 17.723,17.23439 41.20735,23.85322 16.94533,4.77587 42.42036,8.5898 64.92598,9.72025 11.64552,0.58495 45.7441,-0.34016 58.13333,-1.57717 z M 263.04329,145.49841 c 39.8751,-4.16862 71.63051,-14.00452 83.48439,-25.85839 6.3328,-6.3328 4.56332,-10.94857 -6.8566,-17.88582 -23.75291,-14.429127 -63.84117,-22.100977 -115.18053,-22.042547 -42.31788,0.0482 -75.46492,5.18211 -101.20005,15.67431 -16.19729,6.603607 -24.828255,14.210477 -22.64352,19.956777 3.27005,8.60087 27.37384,19.78112 54.80319,25.41976 29.71083,6.10766 75.28356,8.11362 107.59312,4.73591 z"
       id="path145" />
  </g>
</svg>
