<?xml version="1.0" encoding="UTF-8" standalone="no"?>
<!-- Created with Inkscape (http://www.inkscape.org/) -->

<svg
   version="1.1"
   id="svg55"
   width="411.56265"
   height="507.57449"
   viewBox="0 0 411.56265 507.57449"
   xmlns="http://www.w3.org/2000/svg"
   xmlns:svg="http://www.w3.org/2000/svg">
  <defs
     id="defs59" />
  <g
     id="g61"
     transform="translate(-46.218867,-62.232392)">
    <path
       style="fill:#ffffff"
       d="M 221.42925,569.60103 C 124.23799,564.56395 64.091076,547.59018 49.391855,521.05118 c -2.554126,-4.6114 -2.959129,-6.38177 -2.939278,-12.84835 0.018,-5.86482 0.524014,-8.44828 2.320887,-11.84941 3.348873,-6.33878 9.45105,-12.53135 17.012832,-17.26487 3.653622,-2.28709 6.817699,-4.30926 7.031283,-4.4937 0.213583,-0.18444 -1.462133,-6.5356 -3.723814,-14.11369 -19.44196,-65.14305 -19.491819,-135.49768 -0.141769,-200.04565 2.187487,-7.29703 3.977249,-13.43762 3.977249,-13.64576 0,-0.20814 -2.244485,-1.81871 -4.987745,-3.57906 -6.652618,-4.26897 -14.282196,-12.77166 -17.429076,-19.42362 -5.768112,-12.19278 -5.721217,-27.4886 0.121361,-39.58424 5.547652,-11.48507 19.76576,-22.77232 30.93524,-24.55839 l 4.087925,-0.65368 0.570465,-6.8045 c 1.255207,-14.9721 9.518116,-30.1518 21.061385,-38.69162 7.82128,-5.78627 13.08802,-8.08015 23.45786,-10.21686 8.14332,-1.67793 8.3685,-1.80374 10.75808,-6.010672 4.08614,-7.193784 8.32107,-11.889411 15.05971,-16.698005 15.7148,-11.213849 36.79926,-13.283018 53.82103,-5.281842 l 4.53408,2.131266 3.54813,-3.115306 c 7.8333,-6.877731 22.2291,-12.070829 33.46156,-12.070829 11.23246,0 25.62826,5.193098 33.46156,12.070829 l 3.54813,3.115306 4.52254,-2.125845 c 6.12948,-2.881195 15.8047,-5.06029 22.46777,-5.06029 18.178,0 37.28846,10.870161 45.87652,26.09487 3.08166,5.463098 3.32171,5.644208 8.36876,6.313718 18.19611,2.4138 34.62215,14.227 42.2902,30.41406 3.00629,6.3462 5.42914,16.02471 5.44974,21.76998 0.0146,4.06522 0.0728,4.13147 4.21298,4.79351 10.37938,1.65973 23.52037,11.19942 29.56333,21.46146 10.13082,17.20398 7.41277,39.64848 -6.58299,54.35965 -3.0018,3.15525 -7.4612,6.91087 -9.90976,8.34582 -3.10805,1.82144 -4.30485,3.10835 -3.96469,4.26319 0.26798,0.9098 2.06387,7.05418 3.99088,13.65418 18.89446,64.71371 18.88935,132.52646 -0.0149,197 -1.93518,6.6 -3.71291,12.9 -3.95051,14 -0.34166,1.5817 0.95527,2.83661 6.20088,6 7.57922,4.57069 14.23315,11.22628 17.60357,17.60796 1.82011,3.44627 2.32456,6.00707 2.34263,11.89204 0.0198,6.46658 -0.38515,8.23695 -2.93928,12.84835 -13.4272,24.24246 -63.83818,40.25075 -148.53736,47.16888 -12.91072,1.05453 -72.12589,2.02228 -84.5,1.38097 z m 69.5,-28.4153 c 45.48055,-2.56786 84.63378,-8.8626 112,-18.00645 11.08807,-3.70484 21.80101,-9.07128 25.08308,-12.56488 l 2.31196,-2.46097 -2.17391,-2.17391 c -1.19564,-1.19565 -7.23623,-4.68261 -13.42352,-7.74879 -12.21094,-6.05129 -15.79761,-9.57216 -15.79761,-15.5078 0,-1.75127 1.84138,-8.32223 4.09195,-14.60212 5.66659,-15.81179 12.42213,-42.89489 14.84144,-59.49961 7.35557,-50.48436 3.63442,-97.45767 -11.61884,-146.66837 l -3.64201,-11.75 H 251.92925 101.25671 l -3.642015,11.75 c -21.255542,68.5755 -20.47435,136.13151 2.35168,203.36882 2.729585,8.04035 4.962875,15.96131 4.962875,17.60212 0,5.69851 -3.69334,9.37571 -15.006642,14.94106 -5.77135,2.83911 -11.821821,6.26678 -13.445493,7.61704 -2.83022,2.35365 -2.886169,2.55571 -1.354855,4.89279 3.466672,5.29081 21.614485,12.64111 45.30699,18.35043 27.99321,6.74568 57.12933,10.53358 98.5,12.80571 13.72383,0.75373 56.13909,0.55045 72,-0.34507 z m -44.92892,-28.68054 c -6.82811,-3.5891 -7.53355,-5.63368 -7.89147,-22.8718 l -0.3204,-15.43056 -19.6796,-0.0148 c -21.2243,-0.0159 -28.09169,-1.00841 -37.12218,-5.36486 -15.28441,-7.37344 -25.62704,-20.34148 -29.60528,-37.12036 -1.67477,-7.06364 -1.92882,-28.10819 -0.38853,-32.1849 0.58499,-1.54831 2.22095,-4.02835 3.63546,-5.51121 l 2.57184,-2.69611 -2.15346,-4.58127 c -3.54494,-7.54155 -5.08687,-16.21759 -5.10268,-28.71141 -0.016,-12.65662 0.73692,-15.8731 4.6843,-20.01121 l 2.57184,-2.69611 -2.15888,-4.59281 c -3.90559,-8.30878 -5.28919,-16.90542 -4.93696,-30.67454 0.28037,-10.96029 0.60888,-13.08837 2.396,-15.52113 4.42749,-6.02699 6.12964,-6.31751 36.92892,-6.30296 30.79255,0.0145 35.98258,0.67448 46.31218,5.88885 3.1854,1.60798 8.13078,4.77259 10.98973,7.03246 l 5.19809,4.10886 5.19809,-4.10886 c 2.85895,-2.25987 7.80433,-5.42448 10.98973,-7.03246 10.3296,-5.21437 15.51963,-5.87431 46.31218,-5.88885 30.79928,-0.0146 32.50143,0.27597 36.92892,6.30296 1.78712,2.43276 2.11563,4.56084 2.396,15.52113 0.35223,13.76912 -1.03137,22.36576 -4.93696,30.67454 l -2.15888,4.59281 2.57184,2.69611 c 3.94738,4.13811 4.70031,7.35459 4.6843,20.01121 -0.0158,12.49382 -1.55774,21.16986 -5.10268,28.71141 l -2.15346,4.58127 2.57184,2.69611 c 1.41451,1.48286 3.05047,3.9629 3.63546,5.51121 1.54029,4.07671 1.28624,25.12126 -0.38853,32.1849 -4.3897,18.51428 -17.16113,32.93774 -34.83183,39.33744 -6.81309,2.46746 -8.45841,2.63336 -29.46602,2.97114 l -22.25,0.35776 -0.002,14.16683 c -0.001,11.51116 -0.32932,14.8096 -1.75,17.59575 -3.55879,6.9792 -11.63662,9.8115 -18.17737,6.37344 z m -8.37657,-71.23397 c -1.02909,-8.68901 -6.44168,-16.31604 -14.69451,-20.70644 -3.02468,-1.60909 -6.33807,-1.90596 -24.39806,-2.18598 l -20.89806,-0.32404 0.59458,5.02027 c 1.23852,10.45738 8.5165,19.09728 18.69507,22.19346 1.37856,0.41934 11.23165,0.80111 21.89576,0.84839 l 19.38929,0.086 -0.58407,-4.93161 z m 73.30549,2.56966 c 8.27912,-4.40438 13.66536,-12.01687 14.70327,-20.78047 l 0.59285,-5.00565 -20.89806,0.32404 c -18.05999,0.28002 -21.37338,0.57689 -24.39806,2.18598 -8.27912,4.40438 -13.66536,12.01687 -14.70327,20.78047 l -0.59285,5.00565 20.89806,-0.32404 c 18.05999,-0.28002 21.37338,-0.57689 24.39806,-2.18598 z m -73.20194,-54.88805 c -0.51099,-9.31137 -2.56582,-14.31602 -7.96043,-19.38805 -6.93734,-6.5225 -8.27375,-6.82995 -31.23569,-7.18598 l -20.89806,-0.32404 0.59285,5.00565 c 0.72875,6.15317 3.46518,11.64314 7.86564,15.78047 5.94663,5.59103 9.21489,6.63374 23.33763,7.44566 12.53374,0.72056 20.23219,2.35044 25.5,5.39875 1.375,0.79567 2.66893,1.46262 2.8754,1.4821 0.20647,0.0195 0.17167,-3.67706 -0.0773,-8.21456 z m 39.70194,3.29324 c 2.2,-0.64938 9.85,-1.52409 17,-1.9438 14.11779,-0.82872 17.39882,-1.87771 23.33763,-7.46139 4.40046,-4.13733 7.13689,-9.6273 7.86564,-15.78047 l 0.59285,-5.00565 -20.89806,0.32404 c -22.96194,0.35603 -24.29835,0.66348 -31.23569,7.18598 -5.41103,5.08746 -7.44914,10.07073 -7.96498,19.47467 l -0.45729,8.33662 3.87995,-1.97465 c 2.13397,-1.08606 5.67995,-2.50596 7.87995,-3.15535 z m -39.70194,-59.29324 c -0.51099,-9.31137 -2.56582,-14.31602 -7.96043,-19.38805 -6.93734,-6.5225 -8.27375,-6.82995 -31.23569,-7.18598 l -20.89806,-0.32404 0.59285,5.00565 c 0.72875,6.15317 3.46518,11.64314 7.86564,15.78047 5.94663,5.59103 9.21489,6.63374 23.33763,7.44566 12.53374,0.72056 20.23219,2.35044 25.5,5.39875 1.375,0.79567 2.66893,1.46262 2.8754,1.4821 0.20647,0.0195 0.17167,-3.67706 -0.0773,-8.21456 z m 39.70194,3.29324 c 2.2,-0.64938 9.85,-1.52409 17,-1.9438 14.11779,-0.82872 17.39882,-1.87771 23.33763,-7.46139 4.40046,-4.13733 7.13689,-9.6273 7.86564,-15.78047 l 0.59285,-5.00565 -20.89806,0.32404 c -22.96194,0.35603 -24.29835,0.66348 -31.23569,7.18598 -5.41103,5.08746 -7.44914,10.07073 -7.96498,19.47467 l -0.45729,8.33662 3.87995,-1.97465 c 2.13397,-1.08606 5.67995,-2.50596 7.87995,-3.15535 z M 419.95929,219.95283 c 13.12275,-6.62941 13.12275,-24.87059 0,-31.5 l -4.45382,-2.25 H 251.92925 88.353025 l -4.453819,2.25 c -13.122756,6.62941 -13.122756,24.87059 0,31.5 l 4.453819,2.25 H 251.92925 415.50547 Z m -30.33553,-66.68161 c -1.10406,-9.32206 -6.98124,-17.10502 -15.88682,-21.03844 -3.86714,-1.70804 -6.35793,-2.0248 -14.1637,-1.80123 -13.22824,0.37888 -13.82801,-0.11263 -19.7941,-16.22138 -0.71146,-1.92097 -2.85054,-5.21606 -4.75351,-7.32242 -9.11567,-10.089957 -24.05769,-11.461321 -34.30433,-3.14842 -6.70534,5.43992 -12.11338,7.68094 -16.5397,6.85386 -3.81872,-0.71356 -6.62842,-3.12994 -13.07127,-11.241506 -5.00634,-6.302989 -10.13012,-8.597755 -19.2595,-8.625676 -6.6998,-0.02049 -8.13977,0.324634 -12.42024,2.976822 -2.663,1.65 -6.9364,5.7 -9.49645,9 -7.62623,9.83049 -14.79018,10.69867 -24.09992,2.9206 -7.03238,-5.875379 -9.651,-6.881233 -17.90497,-6.877571 -5.74903,0.0025 -8.44977,0.506299 -11.56821,2.157731 -5.02116,2.65906 -10.56133,8.66155 -12.28168,13.30658 -6.00606,16.21668 -6.34754,16.48552 -20.97347,16.51196 -11.76037,0.0213 -14.81797,1.01688 -21.01427,6.84265 -4.38489,4.12269 -7.1364,9.62315 -7.85688,15.70644 l -0.58407,4.93161 h 138.27858 138.27858 z"
       id="path145" />
  </g>
</svg>
