<?xml version="1.0" encoding="UTF-8" standalone="no"?>
<!-- Created with Inkscape (http://www.inkscape.org/) -->

<svg
   version="1.1"
   id="svg533"
   width="475.99039"
   height="475.67728"
   viewBox="0 0 475.99039 475.67728"
   xmlns="http://www.w3.org/2000/svg"
   xmlns:svg="http://www.w3.org/2000/svg">
  <defs
     id="defs537" />
  <g
     id="g539"
     transform="translate(-35.181006,-20.312222)">
    <path
       style="fill:#ffffff"
       d="M 120.39585,494.56975 C 102.73044,489.81179 87.17867,474.98488 82.01209,457.97502 l -2.04017,-6.71681 -6.71682,-2.04017 C 56.02489,443.98452 41.29226,428.38036 36.61043,410.4056 c -1.92734,-7.39956 -1.90215,-20.29077 0.0543,-27.80219 5.04325,-19.36232 19.37732,-34.29984 39.45659,-41.11766 4.13116,-1.40272 8.23768,-1.84918 16.5,-1.79387 9.35796,0.0626 12.04493,0.46911 18,2.72288 l 7,2.64923 20.18892,-20.2276 20.18892,-20.2276 -1.0534,-5.5 c -1.44757,-7.5581 -0.40426,-47.30472 1.65369,-63 8.40634,-64.11227 30.91305,-117.48908 67.02187,-158.948734 24.06919,-27.635913 56.44512,-47.363281 89.5,-54.534316 11.72933,-2.544601 37.21059,-3.102429 50.72271,-1.110406 50.70617,7.475346 97.12415,40.219956 124.52419,87.843036 20.54172,35.70286 26.30865,80.00326 15.34136,117.84911 -21.59198,74.50939 -103.48685,131.05897 -210.58826,145.41421 -14.95268,2.00417 -55.64994,3.08122 -63,1.66729 l -5.5,-1.05803 -20.2276,20.18892 -20.2276,20.18892 2.5218,6.91726 c 11.21168,30.75346 -7.74672,65.62247 -40.28748,74.09826 -7.07483,1.84275 -21.0614,1.8155 -28.00461,-0.0546 z m 25.72549,-29.59295 c 9.53777,-4.16845 15.92856,-13.10888 16.75816,-23.44393 0.58842,-7.3305 -0.75378,-12.13799 -5.28342,-18.92408 -4.00834,-6.0051 -4.92599,-9.28112 -3.99292,-14.25481 0.59471,-3.17006 4.0106,-7.07494 22.36006,-25.56093 20.58591,-20.73909 21.55911,-21.89033 19.65812,-23.2547 -9.9092,-7.11199 -18.10604,-15.24698 -23.65439,-23.47589 l -1.65439,-2.45367 -21.84737,21.65812 c -18.50038,18.34012 -22.42059,21.76565 -25.58904,22.36006 -5.08112,0.95322 -8.21952,0.005 -15.02767,-4.54155 -15.10153,-10.08442 -34.36211,-4.32102 -41.85157,12.52337 -6.06941,13.65056 0.42689,30.0837 14.12443,35.72938 1.375,0.56673 6.23463,1.35062 10.79917,1.74198 12.50728,1.07236 17.19611,5.74215 17.19927,17.12942 0.006,20.49825 19.17831,32.99386 38.00156,24.76723 z m 151.5315,-121.69974 c 34.4059,-5.31243 60.16724,-13.206 87.42992,-26.78953 66.57971,-33.17309 102.57113,-85.15578 97.02139,-140.12874 -3.29004,-32.58946 -17.27229,-61.48552 -41.48477,-85.733421 -21.03018,-21.060943 -47.47379,-35.2322 -74.99804,-40.191807 -12.64099,-2.277787 -32.38467,-2.077507 -44.5,0.451408 -59.04602,12.32508 -110.35653,75.64765 -129.01966,159.22382 -4.43998,19.88286 -6.13526,34.83154 -6.69099,59 -0.62554,27.2038 -0.0733,31.20413 5.97575,43.28981 7.41386,14.81245 23.02596,27.74825 38.85865,32.19731 7.97592,2.24128 49.62859,1.42633 67.40775,-1.31885 z m 51.50252,-200.91982 c -6.62445,-3.34177 -9.5498,-13.75993 -5.56946,-19.83471 4.61182,-7.03852 15.66812,-8.53499 21.53445,-2.91469 11.99121,11.48831 -1.15467,30.2206 -15.96499,22.7494 z m -61.73324,-3.32862 c -2.99851,-1.48424 -4.78561,-3.28991 -6.25,-6.31493 -2.56363,-5.29575 -2.56239,-6.9166 0.009,-12.22907 2.08401,-4.30431 8.13108,-8.37583 12.44022,-8.37583 4.30914,0 10.35621,4.07152 12.43989,8.37583 2.58767,5.3454 2.57698,6.925 -0.084,12.42186 -1.59502,3.29487 -3.19559,4.90665 -6.25,6.29376 -5.27332,2.3948 -7.17392,2.36829 -12.30511,-0.17162 z m 39.00355,-37.81642 c -6.46723,-4.063551 -8.50955,-10.590381 -5.46649,-17.469731 2.34976,-5.312015 5.64561,-7.708421 11.51087,-8.369521 13.48667,-1.520142 20.61137,14.693481 10.6503,24.236781 -3.97797,3.811141 -11.96012,4.577321 -16.69468,1.602471 z"
       id="path543" />
  </g>
</svg>
