<?xml version="1.0" encoding="UTF-8" standalone="no"?>
<!-- Created with Inkscape (http://www.inkscape.org/) -->

<svg
   version="1.1"
   id="svg353"
   width="422.91385"
   height="351.87735"
   viewBox="0 0 422.91385 351.87735"
   xmlns="http://www.w3.org/2000/svg"
   xmlns:svg="http://www.w3.org/2000/svg">
  <defs
     id="defs357" />
  <g
     id="g359"
     transform="translate(-82.256987,-193.41024)">
    <path
       style="fill:#ffffff"
       d="m 89.391213,544.38907 c -3.301045,-1.3654 -6.545736,-5.54401 -7.106977,-9.15257 -0.39922,-2.56683 3.522703,-16.54675 16.101137,-57.3934 14.441357,-46.89622 17.018007,-54.39465 19.586607,-57 l 2.9577,-3 h 72.96153 72.96154 l 2.95769,3 c 2.56861,2.60535 5.14526,10.10378 19.58661,57 18.13886,58.90334 18.04269,58.41159 12.50702,63.95042 l -3.04783,3.04958 -25.48005,0.29809 c -21.4776,0.25127 -25.99784,0.0524 -28.77645,-1.26616 -6.12377,-2.90592 -8.52104,-10.65501 -5.09204,-16.45984 2.98549,-5.05403 4.72711,-5.53608 21.93849,-6.07209 l 16.05497,-0.5 -12.14504,-39.5 -12.14504,-39.5 h -59.31987 -59.31987 l -12.14286,39.5 -12.14287,39.5 52.0528,0.5 c 56.33293,0.54111 54.55928,0.35522 57.93631,6.07209 3.40404,5.76258 1.03526,13.55225 -4.9907,16.41175 -2.75034,1.30512 -11.59522,1.50734 -63.54394,1.45277 -33.19187,-0.0349 -61.248867,-0.43565 -62.348867,-0.89064 z m 234.948657,-0.58846 c -5.90307,-2.93068 -8.19307,-10.69587 -4.83217,-16.38542 3.44154,-5.82606 -0.55686,-5.52975 81.93609,-6.07209 l 76.05258,-0.5 -12.14264,-39.5 -12.14265,-39.5 h -59.31276 -59.31276 l -4.78851,15.5 c -5.63798,18.24966 -7.67083,21 -15.52162,21 -3.88009,0 -5.10645,-0.52223 -7.98422,-3.4 -4.8087,-4.8087 -4.52418,-8.152 2.67592,-31.44437 4.8633,-15.73281 6.66333,-20.25436 9.01923,-22.65563 l 2.94331,-3 h 72.96154 72.96154 l 2.95769,3 c 2.56861,2.60535 5.14526,10.10378 19.58661,57 18.13961,58.90576 18.04312,58.41237 12.50553,63.95042 l -3.04933,3.04958 -85.73102,0.2362 c -74.89308,0.20634 -86.11676,0.0447 -88.78236,-1.27869 z M 201.27933,400.36303 c -2.77164,-1.11987 -6.09696,-5.41778 -6.85219,-8.85634 -0.42271,-1.92458 2.55822,-13.01992 9.99516,-37.20304 8.98398,-29.21374 11.04742,-34.91732 13.55244,-37.46055 l 2.95493,-3 h 72.96154 72.96154 l 2.95493,3 c 2.5035,2.54169 4.57867,8.27053 13.58365,37.5 9.60854,31.18855 10.52818,34.84169 9.58112,38.05989 -1.40941,4.78933 -5.05363,7.99259 -9.8202,8.63192 -4.58951,0.61559 -9.55848,-1.53764 -11.42802,-4.95216 -0.67445,-1.23181 -5.1188,-14.83965 -9.87633,-30.23965 l -8.65006,-28 h -59.30663 -59.30663 l -8.65006,28 c -4.75753,15.4 -9.20188,29.00784 -9.87633,30.23965 -2.38094,4.34853 -9.50406,6.41154 -14.77886,4.28028 z m 12.11188,-112.4086 c -1.65,-0.7636 -10.26234,-8.75103 -19.13853,-17.74985 -17.84606,-18.09259 -18.9454,-19.95724 -15.69184,-26.61564 2.541,-5.20013 8.13681,-7.92001 13.18357,-6.40797 5.09949,1.52785 36.62151,33.23086 37.59268,37.80854 1.87351,8.83085 -7.83037,16.72066 -15.94588,12.96492 z m 151.5,-0.36288 c -4.48486,-2.24044 -7.43666,-7.94109 -6.46955,-12.49429 0.99416,-4.68056 32.42345,-36.36046 37.61635,-37.91629 5.04676,-1.51204 10.64257,1.20784 13.18357,6.40797 3.25348,6.65823 2.15413,8.52299 -15.69184,26.61702 -14.57178,14.77433 -20.01479,19.14024 -23.85641,19.13559 -0.70517,-8.6e-4 -2.85712,-0.78836 -4.78212,-1.75 z m -77.24434,-32.00324 c -5.2413,-3.24976 -5.75566,-5.95267 -5.75566,-30.24521 0,-17.76491 0.30277,-22.83579 1.51616,-25.39281 2.89288,-6.0963 10.65295,-8.39252 16.56339,-4.90113 5.39964,3.18965 5.92045,5.85454 5.92045,30.29394 0,17.76491 -0.30277,22.83579 -1.51616,25.39281 -2.89403,6.09872 -10.94945,8.43538 -16.72818,4.8524 z"
       id="path363" />
  </g>
</svg>
