<?xml version="1.0" encoding="UTF-8" standalone="no"?>
<!-- Created with Inkscape (http://www.inkscape.org/) -->

<svg
   version="1.1"
   id="svg332"
   width="512"
   height="511.09268"
   viewBox="0 0 512 511.09268"
   xmlns="http://www.w3.org/2000/svg"
   xmlns:svg="http://www.w3.org/2000/svg">
  <defs
     id="defs336" />
  <g
     id="g338"
     transform="translate(16,-87.04239)">
    <path
       style="fill:#ffffff"
       d="M 88.54761,577.74385 C -1.125255,559.71877 -12.605634,557.20345 -14.202393,555.23153 -15.829343,553.22233 -16,550.54753 -16,527.05662 c 0,-16.9794 0.382492,-26.7103 1.106066,-28.13921 0.608336,-1.20134 10.745949,-11.87563 22.528028,-23.72065 L 29.056055,453.66038 8.778028,449.70764 C -7.4925518,446.53606 -11.944657,445.31708 -13.75,443.53948 -15.974238,441.34943 -16,441.01162 -16,414.0365 V 386.74894 L 133.21187,237.52461 C 215.27839,155.45123 283.62728,87.801749 285.09828,87.192441 c 2.24675,-0.930635 18.80657,2.119071 103.53169,19.066709 55.47143,11.096 102.04301,20.78777 103.49241,21.53728 1.44939,0.74951 2.91479,2.0912 3.25644,2.98152 0.34165,0.89033 0.62118,13.59706 0.62118,28.23718 v 26.6184 l -22.51154,22.58942 -22.51154,22.58943 20.26154,3.94951 c 16.256,3.16873 20.70635,4.38748 22.51154,6.16493 2.22425,2.19007 2.25,2.5277 2.25,29.50714 v 27.29173 L 345.74627,447.97942 c -134.97895,134.97895 -150.55833,150.24372 -153.25,150.15526 -1.64795,-0.0542 -48.42485,-9.23003 -103.94866,-20.39083 z M 184,564.47607 v -15.75708 l -89.25,-17.836 c -49.0875,-9.8098 -90.4875,-18.07158 -92,-18.3595 L 0,512 v 15.87356 15.87356 l 90.25,18.14269 c 49.6375,9.97848 91.0375,18.18783 92,18.24301 1.59687,0.0915 1.75,-1.27845 1.75,-15.65675 z M 480,278.23583 v -12.5 L 340,405.73315 200,545.73047 v 12.5 12.5 L 340,430.73315 480,290.73583 Z m -224.85547,189.24732 65.63884,-65.75 0.65988,-5.5 c 1.41752,-11.81495 6.06911,-30.78812 11.20874,-45.71885 0.33722,-0.97963 -30.39167,29.15635 -68.28643,66.96885 -57.29686,57.17249 -69.35639,68.75 -71.61233,68.75 -3.0718,0 -5.50911,3.6107 -13.16303,19.5 -4.1189,8.55073 -9.96438,23.52413 -9.36858,23.99796 0.4882,0.38826 15.19811,3.27413 17.28122,3.39032 1.39036,0.0776 22.07576,-19.99519 67.64169,-65.63828 z m -97.98958,50.25 c 1.59447,-4.4 5.83958,-14.00981 9.43358,-21.35513 3.59399,-7.34533 6.39435,-13.48913 6.223,-13.65291 -0.17134,-0.16377 -17.05785,-3.64759 -37.52558,-7.74182 l -37.21405,-7.44406 -3.63746,8.59696 c -4.07165,9.62314 -12.727184,35.13755 -12.124539,35.74019 0.700075,0.70008 68.138469,14.19949 70.068049,14.02581 1.38873,-0.125 2.63319,-2.25313 4.777,-8.16904 z M 70.382253,495.96406 c 2.040463,-6.473 5.466245,-16.13345 7.612848,-21.46766 2.146603,-5.33421 3.774598,-9.82688 3.617768,-9.98371 -0.156831,-0.15684 -7.745548,-1.78888 -16.863816,-3.62677 L 48.170384,457.5443 28.344569,477.38873 C 17.44037,488.30316 8.739534,497.27887 9.009376,497.33475 c 38.919614,8.0599 56.611915,11.46804 57.076783,10.99494 0.322388,-0.3281 2.25563,-5.89263 4.296094,-12.36563 z M 184,452.47607 v -15.75708 l -89.25,-17.836 c -49.0875,-9.8098 -90.4875,-18.07158 -92,-18.3595 L 0,400 v 15.87356 15.87356 l 90.25,18.14269 c 49.6375,9.97848 91.0375,18.18783 92,18.24301 1.59687,0.0915 1.75,-1.27845 1.75,-15.65675 z M 480,166.23583 v -12.5 L 340,293.73315 200,433.73047 v 12.5 12.5 L 340,318.73315 480,178.73583 Z m -257.17253,221.66991 33.31627,-33.32741 1.46504,-11.92259 c 6.66055,-54.20416 28.1868,-105.53351 62.03503,-147.92259 11.61803,-14.54957 17.03085,-20.15047 45.60798,-47.19273 14.16348,-13.40277 25.18848,-24.55602 24.5,-24.78501 -0.68849,-0.22899 -7.32679,-1.60015 -14.75179,-3.04702 -7.425,-1.44686 -14.42336,-2.8471 -15.5519,-3.11164 -3.1674,-0.74245 -57.2101,56.50251 -77.64985,82.25095 -40.08772,50.49943 -70.69906,107.35914 -90.65302,168.38545 -7.02471,21.48405 -14.85023,50.62833 -13.86007,51.61849 0.50681,0.50682 7.94603,2.16714 10.22044,2.28106 1.36829,0.0685 12.5923,-10.4898 35.32187,-33.22696 z m -56.79639,8.63443 c 20.45414,-79.94559 58.34617,-153.90323 111.59295,-217.80702 10.7692,-12.9246 18.51854,-21.39203 44.17804,-48.27178 9.06823,-9.49949 16.27909,-17.48039 16.02414,-17.73534 -0.25496,-0.25496 -4.91931,-1.38037 -10.36524,-2.50091 l -9.90167,-2.03735 -26.37468,26.27269 c -64.35394,64.10511 -106.86561,113.98198 -149.98929,175.97514 -20.92042,30.07449 -57.54781,89.0027 -56.0603,90.19298 0.61898,0.4953 75.34202,15.29467 75.72461,14.99774 0.19781,-0.15352 2.52495,-8.74228 5.17144,-19.08615 z m -93.94506,-6.55702 c 38.37775,-66.65612 81.98208,-128.3403 130.83455,-185.08301 21.1754,-24.59547 37.79948,-42.42102 68.40644,-73.35038 l 26.90003,-27.18339 -3.7292,-0.6996 -3.7292,-0.6996 -140.84332,140.84066 C 72.461497,321.27019 9.322245,384.89254 9.615873,385.19082 c 0.472258,0.47974 54.039828,11.68373 57.090017,11.94073 0.663239,0.0559 3.084298,-3.1609 5.38013,-7.1484 z M 470.22643,251.15591 c -0.39954,-0.34655 -7.92149,-2.04807 -16.71545,-3.78115 l -15.98903,-3.15106 -29.33709,29.25473 c -30.42388,30.33846 -40.28946,41.91542 -49.44873,58.0266 -7.55748,13.29363 -14.89064,32.72155 -18.20393,48.22812 -0.50268,2.3526 13.5006,-11.12925 64.88982,-62.47357 36.04196,-36.01046 65.20395,-65.75711 64.80441,-66.10367 z m -4.7e-4,-112.00324 c -1.62074,-1.41184 -59.02982,-12.12757 -60.47241,-11.28752 -3.11601,1.81454 -55.67777,52.03 -64.60251,61.71874 -34.26715,37.20053 -58.12766,83.77286 -68.14498,133.00934 C 275.90273,328.01627 275,333.19041 275,334.09132 c 0,0.9009 44.08918,-42.44946 97.97596,-96.33413 53.88677,-53.88467 97.64927,-98.2567 97.25,-98.60452 z"
       id="path342" />
  </g>
</svg>
