<?xml version="1.0" encoding="UTF-8" standalone="no"?>
<!-- Created with Inkscape (http://www.inkscape.org/) -->

<svg
   version="1.1"
   id="svg910"
   width="682.26794"
   height="471.88702"
   viewBox="0 0 682.26795 471.88703"
   xmlns="http://www.w3.org/2000/svg"
   xmlns:svg="http://www.w3.org/2000/svg">
  <defs
     id="defs914" />
  <g
     id="g916"
     transform="translate(-21.567472,-233.05509)">
    <path
       style="fill:#ffffff;stroke-width:1.33333"
       d="m 245.31103,702.682 c -13.7326,-3.62301 -24.02539,-9.68204 -34.72536,-20.44168 -15.53876,-15.62541 -23.94131,-34.76464 -23.94131,-54.5333 v -8.24814 h -48.38654 c -53.887122,0 -56.695438,-0.33602 -74.18171,-8.87564 C 44.937826,601.23682 29.834684,581.69285 23.940352,558.64623 19.322095,540.58902 21.400965,523.89638 30.564204,505.45887 45.700193,475.0035 77.714618,444.5272 113.16123,426.83023 l 12.51687,-6.24915 -6.66447,-6.89444 C 100.08187,394.10159 90.533969,369.68168 90.512767,340.7922 c -0.01396,-19.02179 3.016858,-31.89999 11.453453,-48.66667 17.30592,-34.39334 51.03367,-56.45299 90.01147,-58.87205 54.18624,-3.36292 103.29911,36.40228 112.06387,90.73473 0.89944,5.57552 1.87296,10.13732 2.16339,10.13732 0.29044,0 3.4954,-1.50366 7.12215,-3.34146 16.31509,-8.2675 30.76176,-11.69266 49.31726,-11.69266 18.55551,0 33.00218,3.42516 49.31727,11.69266 3.62675,1.8378 6.84591,3.34146 7.15368,3.34146 0.30779,0 0.96043,-2.85 1.45032,-6.33333 6.76632,-48.11152 42.06322,-84.94039 89.31905,-93.19574 36.65072,-6.40269 75.24219,7.72669 99.73916,36.51722 34.64377,40.71571 33.73539,102.52063 -2.07496,141.17683 l -7.76216,8.37901 12.42883,6.20492 c 44.12169,22.02715 82.58296,64.26818 89.76303,98.58443 2.64656,12.64896 2.48808,20.995 -0.6302,33.18736 -5.89434,23.04662 -20.99747,42.59059 -40.13576,51.93701 -17.48627,8.53962 -20.29459,8.87564 -74.18171,8.87564 h -48.38654 v 8.24814 c 0,33.9473 -25.69652,66.48243 -59.28013,75.05637 -11.57355,2.95474 -222.82356,2.88128 -234.05321,-0.0813 z m 227.38225,-41.44606 c 7.66758,-2.61261 18.09901,-12.35896 21.21854,-19.82504 3.60503,-8.62806 3.98266,-17.74554 1.07487,-25.95202 -5.53467,-15.62019 -27.78233,-41.24443 -47.15882,-54.31621 -27.21672,-18.36097 -52.62502,-26.16556 -85.18351,-26.16556 -41.46022,0 -77.11997,14.70784 -106.03905,43.73577 -31.06171,31.1786 -36.35435,54.47958 -16.81322,74.02072 11.06202,11.062 4.60268,10.50101 122.28142,10.62001 93.8472,0.0949 104.73813,-0.1136 110.61977,-2.11767 z M 210.64436,567.93786 c 14.71192,-20.28855 41.88155,-42.75677 66.66667,-55.13079 6.23333,-3.112 11.55996,-5.86505 11.83693,-6.1179 0.27699,-0.25284 -2.21468,-3.48311 -5.53702,-7.17835 -7.83484,-8.71424 -14.93716,-19.47903 -19.17393,-29.06143 -1.86206,-4.21145 -4.07716,-8.09173 -4.92244,-8.62285 -3.7345,-2.34648 -31.82145,-10.40547 -41.26745,-11.84087 -19.97253,-3.035 -48.29383,-0.0968 -69.60276,7.22081 -34.14514,11.72573 -66.937098,39.28293 -82.008413,68.91695 -2.279689,4.48246 -3.035912,8.18818 -2.993009,14.66667 0.11076,16.72576 9.215241,29.48618 24.909375,34.91182 6.006062,2.07637 12.772117,2.33726 60.758707,2.34278 l 54.00001,0.007 7.33333,-10.11305 z m 429.42651,6.70223 c 7.71053,-3.567 15.47277,-11.44928 18.88912,-19.18122 3.80705,-8.61618 3.67201,-21.51128 -0.30721,-29.33544 -15.07131,-29.63402 -47.86327,-57.19122 -82.00841,-68.91695 -21.30893,-7.31766 -49.63023,-10.25581 -69.60276,-7.22081 -9.446,1.4354 -37.53295,9.49439 -41.26745,11.84087 -0.84528,0.53112 -3.06038,4.4114 -4.92244,8.62285 -4.23677,9.5824 -11.33909,20.34719 -19.17393,29.06143 -3.32234,3.69524 -5.81401,6.92551 -5.53702,7.17835 0.27697,0.25285 5.6036,3.0059 11.83693,6.1179 24.83327,12.39804 52.02687,34.90226 66.66667,55.17038 l 7.33333,10.15265 56.00001,-0.33561 c 53.82113,-0.32256 56.23708,-0.44529 62.09316,-3.1544 z M 381.53114,489.52655 c 14.97991,-4.50829 30.11448,-16.20068 37.67987,-29.11004 12.234,-20.87576 12.25477,-47.51884 0.0528,-67.67624 -12.36096,-20.41987 -32.7916,-31.94807 -56.61945,-31.94807 -23.82784,0 -44.25848,11.5282 -56.61938,31.94807 -6.3567,10.50108 -9.13108,21.21365 -8.99158,34.7186 0.1905,18.44067 6.41807,32.84368 19.96595,46.17683 9.98333,9.82509 21.73135,15.55039 37.64501,18.34596 5.2258,0.91803 20.23162,-0.4522 26.88678,-2.45511 z M 218.12244,403.3062 c 29.89551,-9.56501 49.1874,-40.34036 44.81603,-71.49261 -3.61094,-25.73292 -22.09523,-46.99867 -47.52963,-54.68171 -9.24319,-2.79211 -27.83609,-2.62508 -36.92976,0.33176 -27.82648,9.04791 -46.50139,34.48059 -46.50139,63.32856 0,18.14565 6.26074,33.17432 19.21763,46.13122 18.07275,18.07273 42.75857,24.11546 66.92712,16.38278 z m 325.85526,1.19923 c 28.60473,-7.01356 49.33334,-33.78424 49.33334,-63.71323 0,-49.78181 -51.95903,-80.9929 -96.9118,-58.2136 -23.89672,12.10937 -38.37878,41.46667 -33.81195,68.54188 3.10243,18.39325 13.68099,34.94214 28.42953,44.47459 16.02962,10.36044 34.42454,13.45528 52.96088,8.91036 z"
       id="path920" />
  </g>
</svg>
