<?xml version="1.0" encoding="UTF-8" standalone="no"?>
<!-- Created with Inkscape (http://www.inkscape.org/) -->

<svg
   version="1.1"
   id="svg733"
   width="510.69458"
   height="511.92749"
   viewBox="0 0 510.69458 511.92749"
   xmlns="http://www.w3.org/2000/svg"
   xmlns:svg="http://www.w3.org/2000/svg">
  <defs
     id="defs737" />
  <g
     id="g739"
     transform="translate(-96.087843,-104.41979)">
    <path
       style="fill:#ffffff"
       d="m 146.54488,551.09728 c -26.8016,-35.8875 -49.376937,-66.17537 -50.167409,-67.30638 -1.343385,-1.92212 0.793844,-5.41121 32.733869,-53.43906 l 34.17109,-51.38267 78.5,-31.30711 c 43.175,-17.2189 80.15527,-31.96729 82.17838,-32.77419 l 3.67838,-1.46708 65.75746,82.19088 65.75747,82.19088 -17.30645,69.27236 -17.30645,69.27237 H 309.90814 195.27507 Z m 265.80231,-10 11.18949,-44.75 H 361.9056 300.27453 l -33.75269,45.00568 -33.7527,45.00568 84.19428,-0.25568 84.19427,-0.25568 z m -171.8887,-15 c 20.30859,-27.0875 37.25684,-49.79752 37.66277,-50.46671 0.40593,-0.6692 5.88672,-26.9942 12.17953,-58.5 6.2928,-31.50581 11.67168,-58.24637 11.95304,-59.42348 0.54501,-2.28001 3.10304,-3.24776 -90.37768,34.19147 l -29.40629,11.77728 -25.39824,38.42216 c -13.96902,21.1322 -25.2612,38.75609 -25.09371,39.16422 0.81531,1.98674 70.09272,94.08506 70.77186,94.08506 0.43121,0 17.40013,-22.1625 37.70872,-49.25 z m 170.32394,-60.25771 c 0,-1.14407 -79.43571,-99.68456 -79.70385,-98.87312 -0.16009,0.48446 -4.72652,23.04333 -10.14763,50.13083 l -9.85656,49.25 h 49.85402 c 27.41971,0 49.85402,-0.22847 49.85402,-0.50771 z m -10.25693,-110.43012 -63.75692,-79.83379 0.25692,-68.81484 0.25693,-68.81484 83.8117,-16.76309 83.8117,-16.7631 50.9383,33.96864 50.9383,33.96863 v 81.24669 81.24669 l -33.50303,50.24842 -33.50302,50.24842 -37.74698,-0.052 -37.74697,-0.052 z m 149.75312,10.18982 26.50381,-39.74801 v -68.75032 -68.75032 l -32.50267,-21.66566 c -17.87647,-11.91612 -32.69908,-21.46926 -32.93913,-21.22921 -0.24006,0.24005 -5.86386,22.13175 -12.49733,48.64822 l -12.06087,48.21176 v 81.51577 81.51578 h 18.49619 18.49618 z m -93.49619,-47.12945 v -58.87746 l -38.75,9.73191 c -24.74276,6.21404 -38.65802,10.15084 -38.49553,10.89086 0.21852,0.99524 76.30876,96.93275 76.99553,97.07893 0.1375,0.0293 0.25,-26.44164 0.25,-58.82424 z m 13.33699,-133.56644 c 5.89431,-23.68085 10.7048,-43.51204 10.68997,-44.06929 -0.0151,-0.56644 -25.16069,4.02139 -57.02696,10.4046 l -57,11.41779 v 44.21823 44.21822 l 46.31003,-11.56672 46.31003,-11.56673 z M 184.0278,245.09271 c -22.13496,-22.14002 -40.24537,-40.55253 -40.24537,-40.91669 0,-0.73604 123.93295,-42.24508 124.45202,-41.68289 0.17985,0.19478 9.41363,18.53827 20.51953,40.76331 l 20.19253,40.40917 -20.82311,20.84083 -20.82311,20.84084 h -21.51356 -21.51356 z m 79.41227,1.09759 9.19522,-9.15699 -9.43144,-18.84301 c -5.18728,-10.36366 -9.98247,-18.84302 -10.65597,-18.84302 -0.6735,0 -13.04785,3.93167 -27.49857,8.73705 l -26.27402,8.73705 19.24395,19.26295 19.24396,19.26295 h 8.49082 8.49083 z"
       id="path743" />
  </g>
</svg>
