<?xml version="1.0" encoding="UTF-8" standalone="no"?>
<!-- Created with Inkscape (http://www.inkscape.org/) -->

<svg
   version="1.1"
   id="svg507"
   width="511.76492"
   height="511.20532"
   viewBox="0 0 511.76492 511.20532"
   xmlns="http://www.w3.org/2000/svg"
   xmlns:svg="http://www.w3.org/2000/svg">
  <defs
     id="defs511" />
  <g
     id="g513"
     transform="translate(0.88699231,-60.73431)">
    <path
       style="fill:#ffffff"
       d="M 18.001894,571.31994 C 11.065462,569.15471 4.9618147,563.98541 1.3703213,557.23431 -0.30414288,554.08674 -0.52246589,550.71365 -0.7978453,523.73609 -0.99814543,504.11368 -0.72128844,492.21776 0.00259522,489.34296 1.5562889,483.17268 6.2896725,476.7398 11.540269,473.66275 l 4.468099,-2.61848 v -18.30996 -18.30996 l -4.468099,-2.61848 c -5.0123948,-2.93746 -9.727494,-9.13035 -11.4925548,-15.09453 -0.82330038,-2.78194 -1.0811754,-13.14218 -0.85816232,-34.47703 0.30411244,-29.09333 0.41924695,-30.68763 2.49639962,-34.56821 2.4083057,-4.49926 8.9337175,-10.85626 12.2118715,-11.8967 2.049138,-0.65038 2.110545,-1.21875 2.110545,-19.53509 0,-18.31634 -0.06141,-18.88471 -2.110545,-19.53509 -3.278154,-1.04044 -9.8035658,-7.39744 -12.2118715,-11.8967 -2.07715267,-3.88058 -2.19228718,-5.47488 -2.49639962,-34.56821 -0.22301308,-21.33485 0.0348619,-31.69509 0.85816232,-34.47703 1.7650608,-5.96418 6.48016,-12.15707 11.4925548,-15.09453 l 4.468099,-2.61848 V 179.8077 161.57114 l -4.850161,-3.1428 C 5.5828294,154.81562 1.5481857,149.26376 -0.01588922,143.05225 -0.71708959,140.26754 -0.99516474,128.06293 -0.7978453,108.73253 -0.50653321,80.194127 -0.38640333,78.539656 1.6707392,74.73431 4.2198423,70.018924 9.1227132,65.195366 14.008368,62.596263 17.378935,60.803166 23.295883,60.73431 174.00837,60.73431 h 156.5 l 4.09468,2.191085 c 4.32716,2.315485 9.83225,7.957051 11.64336,11.932004 l 1.08299,2.376911 h 18.7721 c 18.22158,0 18.79174,-0.06189 19.44196,-2.110545 1.04044,-3.278154 7.39744,-9.803566 11.8967,-12.211872 4.00783,-2.145264 4.74351,-2.177583 49.56821,-2.177583 44.73897,0 45.5669,0.03617 49.5,2.162371 4.71539,2.549103 9.53894,7.451974 12.13805,12.337629 1.67446,3.147568 1.89278,6.520663 2.16816,33.49822 0.19732,19.3304 -0.0808,31.53501 -0.78195,34.31972 -1.56408,6.21151 -5.59872,11.76337 -11.1741,15.37609 l -4.85016,3.1428 v 18.23656 18.23657 l 4.4681,2.61848 c 5.2506,3.07705 9.98398,9.50993 11.53767,15.68021 0.72389,2.8748 1.00074,14.77072 0.80044,34.39313 -0.29184,28.59024 -0.40842,30.18916 -2.48379,34.06643 -2.40831,4.49926 -8.93372,10.85626 -12.21188,11.8967 -2.04913,0.65038 -2.11054,1.21875 -2.11054,19.53509 0,18.31634 0.0614,18.88471 2.11054,19.53509 3.27816,1.04044 9.80357,7.39744 12.21188,11.8967 2.07537,3.87727 2.19195,5.47619 2.48379,34.06643 0.2003,19.62241 -0.0765,31.51833 -0.80044,34.39313 -1.55369,6.17028 -6.28707,12.60316 -11.53767,15.68021 l -4.4681,2.61848 v 18.23657 18.23656 l 4.85016,3.1428 c 5.57538,3.61272 9.61002,9.16458 11.1741,15.37608 0.7012,2.78472 0.97927,14.98933 0.78195,34.31973 -0.27538,26.97756 -0.4937,30.35065 -2.16816,33.49822 -2.59911,4.88565 -7.42266,9.78853 -12.13805,12.33763 l -4,2.16237 h -156.5 -156.5 l -4.09468,-2.19109 c -4.32716,-2.31548 -9.83225,-7.95705 -11.64336,-11.932 l -1.08299,-2.37691 h -18.7721 c -18.22158,0 -18.79174,0.0619 -19.44196,2.11054 -1.04044,3.27816 -7.39744,9.80357 -11.8967,12.21188 -3.98555,2.13334 -4.9622,2.18132 -48.068212,2.36159 -24.2,0.10121 -45.127913,-0.16806 -46.506474,-0.59838 z m 89.126836,-19.05214 2.96651,-2.96651 -0.29344,-29.12306 -0.29343,-29.12306 -2.36078,-1.91043 c -2.23998,-1.81267 -4.50664,-1.91043 -44.295461,-1.91043 h -41.93467 l -2.454546,2.45455 -2.454545,2.45454 v 28.62238 28.62238 l 2.923077,2.92307 2.923077,2.92308 h 41.153846 41.153852 z m 384,0 2.96651,-2.96651 -0.29344,-29.12306 -0.29343,-29.12306 -2.36078,-1.91043 c -2.30079,-1.86188 -6.23155,-1.91043 -154.66822,-1.91043 -83.76908,0 -153.03587,0.27953 -153.9262,0.62118 -4.08069,1.56591 -4.5448,5.02833 -4.5448,33.90608 v 27.62659 l 2.92308,2.92307 2.92307,2.92308 H 336.00837 488.16222 Z M 161.01395,515.48431 c 0.003,-12.5125 0.46518,-24.40479 1.02693,-26.42731 1.8155,-6.53656 6.98717,-12.99968 12.83168,-16.03595 l 5.36419,-2.78674 h 148.38581 148.38581 v -17.5 -17.5 h -37.30366 -37.30365 l -5.19792,-2.59023 c -2.85885,-1.42463 -6.54367,-4.22287 -8.18849,-6.21832 -5.77811,-7.00985 -6.14581,-9.78571 -5.81006,-43.86139 0.27385,-27.79295 0.4872,-31.17485 2.16573,-34.33006 2.59911,-4.88565 7.42266,-9.78853 12.13805,-12.33763 3.86799,-2.09101 5.24587,-2.17211 41.75,-2.45737 l 37.75,-0.295 v -16.93898 -16.93898 l -148.75,-0.26602 -148.75,-0.26602 -4.06821,-2.17758 c -2.23752,-1.19767 -5.69962,-3.98336 -7.69357,-6.19042 -6.12598,-6.78072 -6.73898,-10.65613 -6.73264,-42.5635 0.003,-16.0177 0.44408,-29.6473 1.02693,-31.74581 1.8155,-6.53656 6.98717,-12.99968 12.83168,-16.03595 l 5.36419,-2.78674 h 148.38581 148.38581 v -17.5 -17.5 h -37.30366 -37.30365 l -5.19792,-2.59023 c -2.85885,-1.42463 -6.53465,-4.21193 -8.16844,-6.194 -5.42198,-6.57779 -6.02633,-10.17743 -6.02633,-35.89391 V 94.23431 h -17 -17 l -0.006,22.75 c -0.003,12.5125 -0.46518,24.40479 -1.02693,26.42731 -1.8155,6.53656 -6.98717,12.99968 -12.83168,16.03595 l -5.36377,2.78674 H 181.39418 33.008368 v 17.5 17.5 h 37.303656 37.303656 l 5.19792,2.59023 c 2.85885,1.42463 6.54367,4.22287 8.18849,6.21832 5.77811,7.00985 6.14581,9.78571 5.81006,43.86139 -0.27385,27.79295 -0.4872,31.17485 -2.16573,34.33006 -2.59911,4.88565 -7.42266,9.78853 -12.13805,12.33763 -3.86799,2.09101 -5.24587,2.17211 -41.750002,2.45737 l -37.75,0.295 v 16.94212 16.94212 l 148.750002,0.26288 148.75,0.26288 4.06821,2.17758 c 2.23752,1.19767 5.69962,3.98336 7.69357,6.19042 6.12598,6.78072 6.73898,10.65613 6.73264,42.5635 -0.003,16.0177 -0.44408,29.6473 -1.02693,31.74581 -1.8155,6.53656 -6.98717,12.99968 -12.83168,16.03595 l -5.36419,2.78674 H 181.39418 33.008368 v 17.5 17.5 h 37.303656 37.303656 l 5.19792,2.59023 c 2.85885,1.42463 6.56013,4.23713 8.22507,6.25 5.20469,6.29238 5.9697,10.94944 5.9697,36.34127 v 22.8185 h 17 17 l 0.006,-22.75 z m 166.44962,-97.87118 c 4.08069,-1.56591 4.5448,-5.02833 4.5448,-33.90608 v -27.62659 l -2.92308,-2.92307 -2.92307,-2.92308 H 174.00837 21.854522 l -2.923077,2.92308 -2.923077,2.92307 v 28.62238 28.62238 l 2.454545,2.45454 2.454546,2.45455 H 173.38113 c 83.85501,0 153.19211,-0.27953 154.08244,-0.62118 z m 164.09025,-1.83337 2.45455,-2.45454 v -28.62238 -28.62238 l -2.92308,-2.92307 -2.92307,-2.92308 h -41.15385 -41.15385 l -2.92307,2.92308 -2.92308,2.92307 v 28.62238 28.62238 l 2.45455,2.45454 2.45454,2.45455 h 42.09091 42.09091 z m -384.46853,-136.46853 2.92308,-2.92307 V 247.76578 219.1434 l -2.45455,-2.45454 -2.45454,-2.45455 H 63.008368 20.917459 l -2.454546,2.45455 -2.454545,2.45454 v 28.62238 28.62238 l 2.923077,2.92307 2.923077,2.92308 h 41.153846 41.153852 z m 384,0 2.92308,-2.92307 V 247.76578 219.1434 l -2.45455,-2.45454 -2.45454,-2.45455 H 336.63561 c -83.85501,0 -153.19211,0.27953 -154.08244,0.62118 -4.08069,1.56591 -4.5448,5.02833 -4.5448,33.90608 v 27.62659 l 2.92308,2.92307 2.92307,2.92308 H 336.00837 488.16222 Z M 327.46357,144.61313 c 4.08069,-1.56591 4.5448,-5.02833 4.5448,-33.90608 V 83.080464 l -2.92308,-2.923077 -2.92307,-2.923077 H 174.00837 21.854522 l -2.923077,2.923077 -2.923077,2.923077 v 28.622376 28.62238 l 2.454545,2.45454 2.454546,2.45455 H 173.38113 c 83.85501,0 153.19211,-0.27953 154.08244,-0.62118 z m 163.68402,-1.28925 2.36078,-1.91043 0.29343,-29.12306 0.29344,-29.123059 -2.96651,-2.96651 -2.96651,-2.966511 h -41.15385 -41.15385 l -2.92307,2.923077 -2.92308,2.923077 v 28.622376 28.62238 l 2.45455,2.45454 2.45454,2.45455 h 41.93467 c 39.78882,0 42.05548,-0.0978 44.29546,-1.91043 z"
       id="path517" />
  </g>
</svg>
