<?xml version="1.0" encoding="UTF-8" standalone="no"?>
<!-- Created with Inkscape (http://www.inkscape.org/) -->

<svg
   version="1.1"
   id="svg724"
   width="511.63379"
   height="509.50101"
   viewBox="0 0 511.63379 509.50101"
   xmlns="http://www.w3.org/2000/svg"
   xmlns:svg="http://www.w3.org/2000/svg">
  <defs
     id="defs728" />
  <g
     id="g730"
     transform="translate(-5.4504725,-16.875366)">
    <path
       style="fill:#ffffff"
       d="m 63.37713,525.5367 c -10.265363,-2.02014 -14.87116,-5.26127 -33.017597,-23.23463 -9.548517,-9.45746 -18.412316,-18.82938 -19.69733,-20.82651 -8.2990638,-12.89813 -6.5190149,-31.16142 4.1439,-42.51637 4.007359,-4.26744 65.272007,-60.705 71.221458,-65.60986 4.463225,-3.67959 9.109291,-3.66511 13.257498,0.0413 2.464411,2.20195 3.115781,3.58747 3.115781,6.62757 0,2.22358 -0.77976,4.83726 -1.85,6.20103 -1.017504,1.29657 -17.600004,16.82255 -36.850004,34.50219 -19.25,17.67964 -35.7875,33.54188 -36.75,35.24943 -2.10383,3.73235 -2.242709,8.54912 -0.372456,12.91795 0.757649,1.76983 8.745149,10.45275 17.75,19.29537 20.463546,20.09488 18.058822,19.19923 45.440138,16.92429 22.933572,-1.9054 25.809432,-2.49018 30.734052,-6.24941 1.98309,-1.5138 41.30466,-44.54698 87.38126,-95.62927 78.32897,-86.83852 83.8898,-93.24249 85.53159,-98.5 0.96578,-3.09271 1.76258,-6.30212 1.77068,-7.13203 0.008,-0.82991 -9.32277,-10.77906 -20.73527,-22.10922 l -20.75,-20.60028 -7.65887,2.3843 -7.65888,2.38431 -33.90873,31.22491 c -18.6498,17.1737 -36.00576,33.13741 -38.56878,35.47491 -3.89356,3.55095 -5.33431,4.25 -8.75932,4.25 -7.08675,0 -11.84515,-6.8858 -9.31493,-13.47946 0.45187,-1.17756 53.32947,-50.68134 64.76744,-60.635 0.49423,-0.43009 -1.41358,-3.31057 -4.24339,-6.40683 -10.3273,-11.2997 -10.87666,-25.88074 -1.52516,-40.48065 1.55768,-2.4319 1.44916,-2.7258 -3.87688,-10.5 -7.14865,-10.43457 -12.76679,-20.86058 -17.2424,-31.99804 -8.43069,-20.9796 -36.25517,-114.096932 -37.20196,-124.500005 -0.42819,-4.70485 -0.0818,-6.294567 2.39583,-10.995969 3.51228,-6.664624 10.68692,-12.41853 17.53264,-14.060794 5.7582,-1.381371 5.30774,-1.480015 36.94491,8.090321 12.66614,3.831543 23.69993,6.966442 24.51954,6.966442 0.81961,0 2.72143,-0.876715 4.22627,-1.948255 8.70657,-6.199623 27.03804,-8.949123 38.13753,-5.720169 2.98932,0.869626 25.00007,10.180993 48.91276,20.691927 29.74942,13.07649 43.61151,18.70911 43.90166,17.83866 0.23322,-0.69966 2.3971,-3.38148 4.80861,-5.95958 6.09407,-6.51505 12.80108,-9.33213 22.31211,-9.37152 9.57014,-0.0396 17.05362,3.33814 23.1972,10.47041 l 4.16999,4.84106 10.44549,-8.52795 c 5.74502,-4.69037 12.2999,-9.370061 14.5664,-10.399305 5.04728,-2.292023 13.38221,-2.459682 18.38401,-0.369799 5.30356,2.215964 37.89132,34.669284 40.42699,40.260214 2.54887,5.62001 2.5466,13.77722 -0.005,19.388622 -1.07699,2.36813 -5.65257,8.25043 -10.16794,13.07179 l -8.20977,8.7661 5.03914,4.7339 c 3.0622,2.87671 6.08954,7.02977 7.71656,10.58599 2.38423,5.21127 2.62843,6.74429 2.23003,14 -0.4273,7.78218 -1.82476,11.93858 -5.98285,17.79453 -0.96649,1.36114 -0.46767,2.48806 2.87716,6.5 10.11793,12.1359 16.26193,25.26194 18.85332,40.27823 1.28081,7.42189 1.52124,15.09595 1.23428,39.39625 -0.329,27.86052 -0.52495,30.68378 -2.55073,36.75103 -3.34692,10.02406 -9.20072,18.09925 -24.10987,33.25905 -15.41711,15.67629 -24.87341,22.59073 -35.43865,25.91271 -6.66781,2.09652 -8.72596,2.2379 -29.0967,1.99871 -28.81649,-0.33836 -48.48498,-1.65076 -56.94399,-3.79965 -3.77594,-0.95922 -11.08766,-3.86167 -16.24829,-6.44988 l -9.38294,-4.70584 -4.02786,2.96212 c -11.78386,8.66595 -27.73974,7.49257 -38.92441,-2.86246 l -5.61995,-5.20309 -79.46561,88.01889 c -43.70609,48.41038 -81.44828,89.38892 -83.87154,91.06342 -7.9745,5.51045 -12.73858,6.65497 -36.428456,8.75154 -24.144007,2.13676 -25.123276,2.16513 -31.489314,0.91235 z m 377.02628,-207.68 c 0.5802,-27.63143 1.19038,-26.04772 -17.23252,-44.7263 -9.03554,-9.16094 -15.08704,-16.10442 -15.50734,-17.79311 -1.51548,-6.08895 3.64379,-11.73059 10.72761,-11.73059 2.91742,0 5.06817,1.78758 19.00766,15.79798 13.31587,13.38362 16.22112,16.86044 19.01001,22.75 l 3.292,6.95202 0.5,20.26568 0.5,20.26568 15.20876,-15.26568 c 12.09368,-12.13894 15.78046,-16.49461 18,-21.26568 l 2.79124,-6 v -33 -33 l -2.67921,-7.3346 c -3.3406,-9.14519 -7.69597,-16.39646 -14.24918,-23.72347 l -5.07881,-5.67852 -44.76951,14.29945 -44.76951,14.29944 -2.42964,8.06885 c -12.35213,41.02147 -29.56513,101.11749 -29.32287,102.37542 0.44797,2.32613 14.10179,8.90268 22.22221,10.70364 6.35974,1.41047 31.33346,2.90612 55.72046,3.33705 l 8.64394,0.15274 z m -112.11803,9.96576 c 2.9407,-2.62751 5.10906,-9.56501 38.52267,-123.25 19.47361,-66.25617 35.67512,-122.085382 36.00336,-124.064922 1.70905,-10.30698 -11.43481,-17.03911 -18.52732,-9.48947 -3.23804,3.44673 -74.40228,245.532222 -73.66385,250.588632 1.2114,8.29515 11.34659,11.86138 17.66514,6.21576 z m -20.08595,-73.54831 c 2.8433,-9.80789 5.01929,-17.94465 4.83552,-18.08167 -0.18377,-0.13702 -8.60824,2.41961 -18.72106,5.6814 l -18.38694,5.93052 12.85474,12.88334 c 7.07011,7.08584 13.16825,12.55386 13.55143,12.15115 0.38317,-0.4027 3.02301,-8.75684 5.86631,-18.56474 z m -32.64042,-27.28309 c 23.728,-7.4886 43.65255,-14.1261 44.27678,-14.75 1.42748,-1.42672 7.84622,-23.48651 7.06205,-24.27068 -0.31841,-0.31841 -22.993,6.54511 -50.38797,15.25227 -43.99749,13.98408 -50.18824,16.20182 -53.05904,19.00763 -2.58618,2.52763 -3.25,3.98631 -3.25,7.14156 0,5.98983 4.62303,10.97584 10.35818,11.17147 1.022,0.0349 21.272,-6.06365 45,-13.55225 z m 6.14182,-46.27843 53,-16.88932 11.70758,-39.85072 c 6.43918,-21.9179 11.38918,-40.136052 11,-40.484782 -0.38917,-0.34873 -20.50758,-9.32909 -44.70758,-19.95635 -42.38169,-18.611621 -44.2777,-19.336933 -51.55039,-19.720348 -7.94751,-0.418992 -14.94961,1.440466 -14.94961,3.969978 0,3.35904 12.60064,45.02508 15.1512,50.0999 1.96467,3.909062 6.93132,9.941562 15.37546,18.675042 11.31809,11.7059 12.47334,13.23794 12.47334,16.54145 0,4.96075 -1.51772,7.40976 -5.66625,9.14313 -5.6897,2.37731 -8.67734,0.65306 -21.49027,-12.40261 -18.1928,-18.53745 -19.43769,-20.83161 -28.41138,-52.358142 -3.65911,-12.85524 -6.95772,-23.70514 -7.33025,-24.1109 -1.32061,-1.4384 -52.46125,-16.48104 -54.35085,-15.986897 -4.56856,1.194705 -4.2563,3.296817 5.6041,37.726767 10.46701,36.548042 21.12343,70.599692 25.76607,82.333142 6.04596,15.28009 21.0163,40.16847 24.15762,40.16235 0.67166,-0.001 25.07121,-7.60257 54.22121,-16.89169 z m 154,-4.76293 c 44.10597,-14.01481 44.5,-14.2181 44.5,-22.95757 0,-3.83749 -0.50522,-5.05495 -3.10576,-7.48422 -2.19856,-2.05377 -4.12484,-2.90121 -6.59459,-2.90121 -1.91886,0 -18.70899,4.83208 -37.3114,10.73795 l -33.82256,10.73795 -3.20767,11.01205 c -1.76422,6.05663 -3.44238,11.85078 -3.72925,12.8759 -0.44024,1.57318 -0.14785,1.74749 1.87482,1.11769 1.31803,-0.41039 19.94641,-6.32274 41.39641,-13.13854 z m -12.11492,-40.45347 c 8.86321,-2.81076 16.50128,-5.34251 16.9735,-5.62612 0.82101,-0.49309 -22.15685,-24.26341 -23.45451,-24.26341 -0.34496,0 -2.26769,5.7375 -4.27272,12.75 -2.00504,7.0125 -4.29581,14.8875 -5.09061,17.5 -0.79479,2.6125 -1.18081,4.75 -0.85783,4.75 0.32299,0 7.83897,-2.29971 16.70217,-5.11047 z m 58.45783,-36.200352 c 2.2864,-2.64595 4.15709,-5.08822 4.15709,-5.42727 0,-1.51746 -30.6045,-31.26191 -32.16584,-31.26191 -0.96232,0 -7.4922,4.6125 -14.51084,10.25 -7.01863,5.6375 -13.22514,10.57592 -13.79224,10.97427 -0.59822,0.42022 6.71934,8.48974 17.43051,19.221702 l 18.4616,18.49743 8.13132,-8.7217 c 4.47222,-4.79694 10.002,-10.88657 12.2884,-13.532522 z M 121.22139,360.46602 c -6.07473,-2.36336 -8.45349,-8.18765 -5.59871,-13.70819 1.96533,-3.80053 4.34851,-5.15113 9.08933,-5.15113 5.02194,0 9.48882,4.42851 9.48882,9.4073 0,6.4969 -7.1645,11.71431 -12.97944,9.45202 z"
       id="path734" />
  </g>
</svg>
