<?xml version="1.0" encoding="UTF-8" standalone="no"?>
<!-- Created with Inkscape (http://www.inkscape.org/) -->

<svg
   version="1.1"
   id="svg917"
   width="380.11105"
   height="512"
   viewBox="0 0 380.11105 512"
   xmlns="http://www.w3.org/2000/svg"
   xmlns:svg="http://www.w3.org/2000/svg">
  <defs
     id="defs921" />
  <g
     id="g923"
     transform="translate(-67.07809,-82.698745)">
    <path
       style="fill:#ffffff"
       d="m 157.84627,593.18936 c -1.49867,-0.84048 -3.18617,-2.39012 -3.75,-3.44364 -0.6638,-1.24032 -1.02514,-20.90514 -1.02514,-55.78992 v -53.87442 l -9.67853,-1.04932 c -8.99918,-0.97566 -9.87656,-1.27096 -12.5,-4.20709 -3.13659,-3.51046 -3.5473,-6.82195 -1.36863,-11.03504 2.17356,-4.20319 6.09305,-5.39809 14.97628,-4.56566 l 7.57088,0.70945 -0.0174,-4.36749 c -0.0504,-12.67932 -6.83491,-29.62498 -16.04535,-40.07652 -10.19234,-11.5658 -26.10897,-19.58321 -42.18725,-21.25028 l -6.75,-0.69988 v 9.02383 c 0,8.09738 -0.24778,9.31189 -2.413416,11.8296 -1.976626,2.29796 -3.224515,2.80576 -6.895013,2.80576 -8.477625,0 -10.678051,-4.53083 -10.68444,-22 -0.0057,-15.71224 2.824684,-20.44823 12.242869,-20.48526 2.0625,-0.008 3.75,-0.31284 3.75,-0.67719 0,-0.36435 -1.333214,-2.74009 -2.962699,-5.27942 -8.698109,-13.55483 -13.019722,-28.78029 -13.030295,-45.907 -0.01,-16.16927 1.589987,-18.86876 12.286509,-20.72996 2.086434,-0.36304 3.661434,-0.94389 3.5,-1.29076 -0.161433,-0.34688 -2.183021,-3.78062 -4.492418,-7.63055 -2.309396,-3.84992 -5.639954,-11.27486 -7.40124,-16.49986 -2.771977,-8.2233 -3.266076,-11.26113 -3.676617,-22.60466 -0.555919,-15.3604 0.409956,-19.59097 5.129854,-22.469 1.730798,-1.05537 4.834406,-1.92055 6.896906,-1.9226 2.0625,-0.002 3.75,-0.30184 3.75,-0.66619 0,-0.36435 -1.333214,-2.74009 -2.962699,-5.27942 -8.742261,-13.62363 -13.027171,-28.78664 -13.015553,-46.05813 0.0117,-17.39285 2.005867,-19.81123 17.060692,-20.69002 10.687036,-0.62383 23.16407,1.2944 33.34496,5.12648 l 6.17715,2.32507 -0.428,-8.95191 c -0.79662,-16.66201 3.5437,-33.27517 12.40981,-47.50027 8.31448,-13.340028 21.25481,-25.309345 27.36258,-25.309345 3.32853,0 6.04616,1.8379 13.89016,9.393761 16.69011,16.077004 25.23857,36.464634 25.25035,60.220714 l 0.006,12.11448 5.78079,-2.33496 c 8.84645,-3.57324 23.0425,-5.71413 33.7792,-5.0942 10.45126,0.60345 12.64246,1.47511 15.0323,5.97985 2.13916,4.03225 2.38549,23.19514 0.41416,32.22035 -1.95154,8.93462 -6.65176,20.49346 -11.18607,27.50892 -2.21112,3.42102 -3.88423,6.33365 -3.71803,6.47251 0.16621,0.13885 2.33216,0.46994 4.81323,0.73574 l 4.51105,0.48329 3.22154,-6.75281 c 6.27358,-13.15032 10.53949,-15.73177 20.03489,-12.1238 l 5.18505,1.97016 -0.62019,-8.73724 c -1.46481,-20.63636 5.28321,-41.73526 18.774,-58.70031 5.22568,-6.57144 6.39926,-7.35646 10.99766,-7.35646 6.12271,0 19.70177,9.02219 28.94568,19.23205 l 4.56072,5.0373 4.11626,-8.57852 c 4.95114,-10.31847 9.97905,-17.27355 17.97129,-24.85964 11.30376,-10.72932 25.47754,-18.15984 40.54857,-21.25734 10.60332,-2.17926 13.81848,-0.91196 17.22431,6.78922 3.79938,8.59108 5.52775,16.32549 6.18529,27.6791 0.98691,17.04073 -2.73037,32.81303 -11.0796,47.01038 -2.40885,4.0961 -4.30102,7.53541 -4.20483,7.64292 0.0962,0.10752 3.31193,0.6841 7.14609,1.28129 10.66155,1.66062 22.11121,5.75015 24.46037,8.73662 7.4869,9.51804 -5.78416,42.47412 -24.03811,59.69397 -3.92744,3.70494 -6.98561,6.83422 -6.79593,6.95396 0.18967,0.11973 2.70541,1.28842 5.59052,2.5971 6.02972,2.73504 8.25434,5.53823 8.25434,10.40107 0,5.1937 -3.67134,16.10145 -8.7984,26.14052 -3.77969,7.40085 -6.38318,10.79604 -14.65241,19.10807 l -10.05602,10.10807 7.00341,3.46662 c 5.26958,2.60838 7.49108,4.35889 8.97319,7.07072 l 1.96977,3.60409 -2.3447,7.32122 c -2.95122,9.21503 -6.17139,15.68745 -11.60283,23.32121 -4.28866,6.02762 -15.83982,17.66703 -20.47877,20.63523 l -2.48676,1.59113 5.48676,2.77525 c 12.82326,6.48613 27.24732,18.84993 28.27739,24.23839 0.73054,3.82155 -1.37549,8.32634 -7.47801,15.99549 -10.27417,12.91172 -26.67159,23.66122 -43.38083,28.43876 -6.49013,1.85567 -10.38552,2.26674 -21.43179,2.26164 -16.028,-0.007 -25.1008,-2.12676 -38.60685,-9.01838 -5.68842,-2.90258 -8.63045,-3.93336 -8.91798,-3.12454 -0.69926,1.9671 -4.31349,36.01523 -5.53714,52.16314 -0.62334,8.22586 -1.4269,26.3755 -1.78569,40.33254 l -0.65234,25.37643 -3.26578,2.91746 c -1.79617,1.6046 -4.40602,2.91746 -5.79966,2.91746 -3.31506,0 -8.10694,-2.51932 -9.40492,-4.94461 -2.99257,-5.59168 1.08209,-84.12156 5.99347,-115.51032 0.63982,-4.08907 0.59808,-6.16115 -0.13319,-6.6131 -0.58573,-0.362 -4.5611,-0.89781 -8.83417,-1.1907 -5.18366,-0.35529 -11.317,-1.74474 -18.42976,-4.17509 l -10.66054,-3.64258 -6.32148,4.51092 c -12.63159,9.01372 -27.799,14.57184 -43.86133,16.07306 l -7.71736,0.72128 -0.28264,54.36352 -0.28264,54.36351 -2.55375,2.55308 c -3.17408,3.17324 -8.50011,4.04041 -12.17111,1.98165 z M 352.30469,461.76688 c 4.15442,-1.06252 10.26181,-3.29901 13.57197,-4.96997 6.68821,-3.3762 17.508,-11.94696 19.29341,-15.28305 1.01516,-1.89684 0.74538,-2.49899 -2.22174,-4.95891 -1.85746,-1.53994 -6.58791,-4.40098 -10.51211,-6.35786 -18.84456,-9.39719 -42.69198,-8.35026 -61.06539,2.68086 -5.69525,3.41934 -16.2997,13.08849 -16.2997,14.86207 0,1.60934 13.68187,9.99828 19.8321,12.15991 12.16877,4.27698 25.39665,4.93727 37.40146,1.86695 z m -164.4414,-3.64115 c 19.93357,-4.06803 36.83743,-17.58385 45.42796,-36.32284 2.97407,-6.4875 5.77988,-18.47415 5.77988,-24.69212 0,-3.06401 -0.2805,-3.40847 -2.75,-3.37714 -7.27933,0.0923 -19.10035,3.1238 -27.04351,6.9352 -12.05699,5.78534 -23.45106,17.17941 -29.2364,29.2364 -3.8114,7.94316 -6.84285,19.76418 -6.9352,27.04351 -0.0316,2.48899 0.3013,2.75 3.50727,2.75 1.94819,0 7.01069,-0.70786 11.25,-1.57301 z m 79.14297,-23.47196 c -1.0262,-8.18408 -3.37131,-16.02374 -6.73881,-22.52766 -2.23912,-4.32459 -2.06269,-4.54494 -4.72107,5.89652 -1.40642,5.52408 -4.3129,12.28639 -10.24179,23.82883 -0.51717,1.00684 8.65268,3.77841 15.30227,4.62509 5.73833,0.73064 5.99091,0.66784 6.66756,-1.65793 0.38681,-1.32954 0.26614,-5.90372 -0.26816,-10.16485 z m 78.49686,-33.93764 c 12.84122,-3.28423 20.00132,-7.39866 29.57138,-16.99271 9.2562,-9.2794 16.32378,-20.70247 13.71286,-22.16361 -4.34925,-2.43396 -16.94947,-4.86107 -25.23603,-4.86107 -11.09354,0 -18.44718,1.77981 -29.29424,7.09011 -10.72285,5.24949 -21.00351,15.22812 -26.53594,25.75635 -2.10998,4.01531 -3.68191,7.42785 -3.49318,7.58342 1.02107,0.84163 9.95666,3.73642 13.84316,4.48465 8.06489,1.55265 19.28861,1.18559 27.43199,-0.89714 z m -60.09823,-18.0755 c 3.09313,-8.47933 2.98604,-28.02199 -0.20517,-37.44189 -4.2763,-12.62292 -10.96457,-22.41266 -20.94887,-30.6632 -2.55368,-2.11024 -4.87631,-3.8368 -5.16139,-3.8368 -0.28508,0 -0.54624,5.5125 -0.58036,12.25 -0.0664,13.11184 -1.39662,20.10471 -6.08322,31.97902 l -2.65583,6.72901 2.80089,4.04169 c 4.59084,6.62459 15.78936,16.48897 22.55997,19.87229 3.48255,1.74025 6.77223,3.01732 7.31039,2.83793 0.53816,-0.17938 1.87178,-2.77501 2.96359,-5.76805 z M 152.07113,382.3587 c 0,-6.16611 -3.40998,-18.70385 -7.20792,-26.50191 -4.67776,-9.60454 -17.73297,-22.47626 -27.79208,-27.40147 -4.125,-2.01971 -10.425,-4.35953 -14,-5.19961 -6.821491,-1.60295 -17.021863,-2.08804 -16.969124,-0.80697 0.209948,5.09984 2.416172,17.0769 4.051207,21.99304 7.70694,23.1728 32.446937,41.92103 55.667917,42.18572 l 6.25,0.0712 z m 38.5399,2.82501 c 11.28165,-2.86775 20.25362,-8.0889 29.026,-16.89139 4.43625,-4.45147 9.31022,-10.34358 10.83105,-13.09358 4.09673,-7.40778 7.47618,-18.28515 8.24244,-26.52979 l 0.67763,-7.29109 -7.90851,0.61859 c -30.245,2.3657 -54.63712,26.79342 -57.86782,57.95229 l -0.69988,6.75 h 5.8695 c 3.22822,0 8.55154,-0.68176 11.82959,-1.51503 z m 170.21993,-49.587 c 2.60709,-0.61922 8.56517,-2.93707 13.24017,-5.15076 11.2716,-5.33729 22.89073,-16.66847 28.33377,-27.63157 5.19474,-10.46301 5.13565,-10.6523 -3.95687,-12.6752 -9.68602,-2.15493 -24.11582,-1.53843 -33.3769,1.42599 -15.60462,4.99496 -29.80838,17.00499 -36.92368,31.22093 -2.24198,4.47933 -4.07632,8.73222 -4.07632,9.45088 0,2.75791 14.08969,5.55742 24.75983,4.91958 3.99291,-0.23869 9.39291,-0.94062 12,-1.55985 z M 306.0662,311.98237 c 10.15061,-27.12993 0.49073,-57.81161 -23.29511,-73.98988 -4.28068,-2.91156 -8.38394,-5.29375 -9.11836,-5.29375 -3.3738,0 -7.58941,15.766 -7.56682,28.29922 0.0299,16.59428 6.36084,32.02169 17.97579,43.80399 5.97487,6.06096 15.84079,12.86473 18.68758,12.88741 0.64798,0.005 2.1406,-2.56298 3.31692,-5.70699 z m -154.31852,-4.58175 c -2.04949,-24.2455 -18.20392,-45.59636 -40.98005,-54.16222 -6.56908,-2.47056 -20.916806,-5.05283 -23.202132,-4.17587 -3.073594,1.17945 0.625927,20.00358 6.003943,30.54963 10.404429,20.40263 32.464819,34.59836 54.398429,35.00505 l 4.39673,0.0815 -0.61692,-7.29812 z m 36.82345,5.80665 c 26.69757,-5.55594 48.85435,-30.87621 49.75269,-56.85626 l 0.24731,-7.15227 -6,0.30895 c -15.30508,0.78809 -28.13002,6.75136 -40.09721,18.64417 -6.36056,6.32102 -8.99649,9.87015 -12.29013,16.54795 -3.939,7.98625 -6.98202,19.70169 -7.07777,27.24893 -0.0327,2.57677 0.23283,2.74891 4.21511,2.73264 2.3375,-0.01 7.4,-0.6729 11.25,-1.47411 z m 190.89052,-45.48053 c 18.00442,-4.60475 33.57812,-17.02434 41.45833,-33.06185 2.28797,-4.65638 4.42644,-9.8648 4.75216,-11.57425 0.72842,-3.82284 -0.27796,-4.20936 -13.18605,-5.06432 -24.96687,-1.65367 -49.35156,12.37592 -60.26374,34.67242 -2.28801,4.675 -4.43332,9.93268 -4.76736,11.68372 -0.58367,3.05959 -0.45678,3.209 3.2544,3.8319 2.12395,0.35649 4.31174,0.80079 4.86174,0.98733 3.26328,1.10677 17.14768,0.24958 23.89052,-1.47495 z m -47.80283,-21.78047 c 7.3906,-12.24506 10.20121,-30.21253 7.04801,-45.05616 -2.86623,-13.49276 -10.93217,-26.84296 -21.52463,-35.62615 -2.41391,-2.00159 -4.88891,-3.47935 -5.5,-3.28391 -0.61109,0.19545 -2.50053,2.65747 -4.19876,5.47117 -7.86268,13.02722 -10.39123,30.92896 -6.53825,46.28983 3.21208,12.80576 7.37758,20.18879 16.81857,29.80962 4.5077,4.59355 8.78342,8.1628 9.50159,7.93166 0.71818,-0.23114 2.69524,-2.72237 4.39347,-5.53606 z M 152.07113,237.3587 c 0,-2.38702 -0.8874,-7.80973 -1.972,-12.05048 -6.82938,-26.70263 -29.61128,-46.25188 -56.298298,-48.30984 l -7.782492,-0.60014 0.615045,5.90025 c 1.814953,17.41124 7.322123,29.3227 18.918705,40.91929 11.8724,11.87239 25.8476,18.26329 40.26904,18.41515 l 6.25,0.0658 z m 38.5399,2.82501 c 14.65983,-3.72647 29.55233,-14.38409 38.10514,-27.26944 4.79255,-7.22028 9.11566,-19.79096 9.97093,-28.99333 l 0.67123,-7.2222 h -4.98364 c -7.1227,0 -19.30821,3.3647 -27.10404,7.48405 -18.66199,9.86108 -31.4114,29.09039 -33.65883,50.76595 l -0.69988,6.75 h 5.8695 c 3.22822,0 8.55154,-0.68176 11.82959,-1.51503 z m 179.35973,-33.86606 c 8.22946,-3.34392 16.97581,-9.54013 23.0448,-16.3257 5.83443,-6.52331 12.28552,-18.8321 14.54563,-27.7533 1.79768,-7.09587 1.96015,-19.9646 0.35308,-27.96675 -1.14785,-5.71557 -1.18062,-5.75566 -4.20968,-5.14985 -7.24337,1.44868 -18.11705,8.02421 -25.72855,15.55857 -14.81904,14.66887 -21.88054,34.64813 -18.92388,53.54175 1.89173,12.08854 1.6083,11.8784 10.9186,8.09528 z M 168.4736,191.94874 c 5.60403,-7.05951 10.00744,-15.82144 12.22341,-24.32224 2.02606,-7.77224 2.2543,-22.36332 0.46815,-29.92776 -1.98138,-8.39125 -8.44623,-21.06318 -13.76238,-26.97602 l -4.77134,-5.30687 -4.33442,4.89145 c -5.10705,5.76336 -11.58752,18.45011 -13.71595,26.85154 -3.39183,13.38837 -1.0089,32.19523 5.6661,44.71882 3.15071,5.91132 11.19047,15.82108 12.83561,15.82108 0.45447,0 2.88034,-2.5875 5.39082,-5.75 z M 91.859634,454.80108 c -2.683766,-2.39795 -3.243049,-3.62279 -3.243049,-7.10234 0,-9.99437 13.492965,-13.62774 18.029545,-4.85497 2.65419,5.13265 1.03732,10.96984 -3.72003,13.42997 -4.184429,2.16385 -7.48861,1.72415 -11.066466,-1.47266 z"
       id="path927" />
  </g>
</svg>
