<?xml version="1.0" encoding="UTF-8" standalone="no"?>
<!-- Created with Inkscape (http://www.inkscape.org/) -->

<svg
   version="1.1"
   id="svg1087"
   width="511.64014"
   height="511.01379"
   viewBox="0 0 511.64014 511.01379"
   xmlns="http://www.w3.org/2000/svg"
   xmlns:svg="http://www.w3.org/2000/svg">
  <defs
     id="defs1091" />
  <g
     id="g1093"
     transform="translate(-8.7779823,-59.713739)">
    <path
       style="fill:#ffffff"
       d="M 167.10669,570.07861 C 93.320058,561.07335 32.745918,510.07726 14.58233,441.67155 4.5014825,403.70617 7.6618896,361.20283 23.204647,325.71268 28.347836,313.96878 34.396879,303.45271 43.233506,290.89316 51.520393,279.11495 228.55009,102.08525 240.3283,93.798359 265.34856,76.194654 287.54913,66.761696 316.147,61.58321 c 12.19796,-2.208801 43.78306,-2.53496 55.95969,-0.57786 49.08842,7.889786 89.8041,34.17375 117.98671,76.1662 20.51113,30.56186 31.88774,71.12379 30.15105,107.5 -1.73469,36.33434 -13.00066,67.18166 -35.42608,97 -5.47206,7.27601 -178.62264,181.0643 -189.21168,189.90854 -23.16834,19.35078 -49.70881,31.65919 -80.10867,37.15119 -10.45394,1.8886 -37.73306,2.64811 -48.39133,1.34733 z m 48.5,-32.25574 c 57.082,-13.37716 99.48022,-56.52213 111.68422,-113.65132 2.7823,-13.02447 2.54114,-41.733 -0.47654,-56.72776 -11.95994,-59.42865 -51.22328,-99.62349 -110.70768,-113.33417 -14.13236,-3.2574 -41.3526,-3.79031 -57,-1.11593 -31.91648,5.455 -59.132716,19.58833 -80.570356,41.83997 -18.589113,19.29495 -30.425812,42.64808 -36.613504,72.23634 -3.408066,16.29666 -3.797393,40.17248 -0.898504,55.10155 11.847526,61.01389 59.742044,107.47 121.120624,117.48303 13.752,2.24344 39.89463,1.34774 53.46174,-1.83171 z m -45.5,-31.70876 c -23.4109,-3.15811 -47.56137,-15.03619 -64.00532,-31.48015 -19.846621,-19.84661 -30.783972,-44.03514 -32.9915,-72.96241 -0.54148,-7.09552 -0.350051,-8.50618 1.693161,-12.47712 5.343408,-10.3848 18.049788,-11.27078 25.155095,-1.75399 1.391914,1.86431 2.353464,5.76134 3.256884,13.1996 1.7826,14.67695 3.69443,21.61254 8.82964,32.03151 7.73787,15.69956 18.21776,26.45622 33.54387,34.42974 13.23476,6.88547 21.02476,8.5723 39.51817,8.55716 15.78158,-0.0129 16.13931,-0.0621 26.20481,-3.60055 13.98274,-4.91556 20.26671,-8.87234 30.78852,-19.38635 6.7411,-6.73611 10.06218,-11.01677 13.2028,-17.01757 5.33603,-10.19557 9.04943,-23.27799 10.16745,-35.82018 0.95884,-10.75643 2.33709,-13.69327 7.97602,-16.99558 4.20646,-2.46342 11.67082,-2.41785 15.0603,0.0919 1.43006,1.05891 3.66163,3.45891 4.95905,5.33334 2.21781,3.20414 2.32596,4.03628 1.80757,13.90805 -2.61772,49.84952 -39.22751,92.06648 -88.94122,102.56352 -9.1233,1.92638 -27.09601,2.61057 -36.2253,1.37904 z m 1,-65.34674 c -13.067,-4.15003 -22.99246,-12.74419 -29.18413,-25.26965 -3.78316,-7.65314 -3.81587,-7.82266 -3.81587,-19.77275 0,-11.81028 0.0732,-12.20471 3.62677,-19.55342 4.38267,-9.06317 9.02018,-14.57554 16.36221,-19.4489 7.86991,-5.22375 15.59991,-7.69442 24.51102,-7.83424 22.59514,-0.35452 41.11385,13.00982 46.60507,33.63333 2.02603,7.60919 1.76749,20.23364 -0.5692,27.79447 -4.70034,15.20892 -16.29283,26.34302 -31.57083,30.32243 -7.02938,1.83092 -20.39677,1.8972 -25.96504,0.12873 z m 21.9966,-30.51267 c 12.17232,-6.87006 10.35507,-25.53725 -2.9819,-30.63069 -11.18,-4.26968 -22.5147,3.87079 -22.5147,16.16984 0,13.2172 13.81617,21.05329 25.4966,14.46085 z m -84.25574,-70.07775 c -6.56587,-4.00326 -9.243912,-13.23124 -5.78242,-19.92502 3.5452,-6.85566 22.77303,-20.83279 36.79312,-26.74571 31.52582,-13.29591 67.52863,-11.78657 97.35753,4.08151 15.31101,8.145 28.66375,20.19082 29.94356,27.01277 0.90309,4.81388 -1.79261,11.89367 -5.54637,14.56658 -6.75131,4.80735 -13.96302,3.83568 -21.37931,-2.88055 -10.61827,-9.61595 -22.67068,-16.19141 -36.12697,-19.70988 -10.5217,-2.75115 -30.39706,-2.52909 -41,0.45808 -11.51636,3.2445 -21.33853,8.28225 -30.04373,15.40932 -4.18355,3.42512 -8.81016,7.01263 -10.28136,7.97224 -3.56712,2.32668 -9.90396,2.21784 -13.93405,-0.23934 z m 298.85743,38.2446 c 27.31283,-27.44175 51.78469,-52.88885 54.57509,-56.75 25.75573,-35.63879 34.56407,-80.85182 23.91194,-122.73945 -2.25868,-8.88185 -7.52583,-23.61671 -9.56588,-26.76055 -0.77578,-1.19554 -11.48623,9.00747 -52.76733,50.26736 -42.1813,42.15962 -52.48319,51.95766 -55.50753,52.79272 -11.43794,3.15817 -21.87997,-8.4912 -17.69863,-19.74498 0.57738,-1.55399 25.28332,-27.07459 55.14937,-56.9679 l 54.10342,-54.1528 -11.39937,-11.43333 C 428.22539,112.59154 407.78882,100.71446 381.46775,93.972112 l -8.87989,-2.274656 -52.90472,52.897654 -52.90472,52.89765 -5.42229,0.44966 c -8.49728,0.70466 -13.43124,-2.68776 -15.77013,-10.84303 -2.28169,-7.95575 -2.25851,-7.9844 43.83334,-54.17784 47.50313,-47.607823 45.3195,-44.463608 28.66684,-41.277428 -11.78459,2.254764 -23.93746,6.241233 -35.20201,11.547208 -20.77392,9.7852 -23.29737,11.93986 -79.50128,67.88256 -28.44809,28.31587 -51.62309,51.56094 -51.5,51.65571 0.12309,0.0948 4.2738,-0.4653 9.2238,-1.24462 13.08516,-2.06011 41.54335,-1.21752 56,1.65804 15.0495,2.99349 30.98984,8.23247 43.36391,14.25207 l 10.36391,5.04172 53.63609,-53.52845 c 29.49985,-29.44065 54.61901,-54.02534 55.82035,-54.63263 2.99252,-1.51277 8.7065,-1.38558 12.6992,0.28268 6.38073,2.66604 9.98464,10.93921 7.73429,17.75489 -0.79301,2.40182 -15.90145,18.1486 -53.04906,55.29044 l -51.94026,51.93219 8.91281,8.39015 c 19.6937,18.53882 36.34575,43.85237 45.05133,68.48463 l 2.38177,6.73917 27.01283,-26.91418 c 23.55395,-23.46792 27.50535,-27.00436 30.85929,-27.61855 11.05406,-2.02425 20.32661,7.71618 17.47203,18.35364 -0.79936,2.97877 -7.51167,10.24013 -34.4058,37.22012 l -33.41269,33.51935 -0.0545,16.98065 c -0.03,9.33935 -0.6135,20.69314 -1.2967,25.23064 -0.68321,4.5375 -0.97773,8.25 -0.65449,8.25 0.32324,0 22.87004,-22.3875 50.10399,-49.75 z"
       id="path1097" />
  </g>
</svg>
